<svg width="40" height="40" viewBox="0 0 40 40" fill="none" xmlns="http://www.w3.org/2000/svg">
<rect width="40" height="40" rx="8" fill="#F0F2F5"/>
<g clip-path="url(#clip0_804_5167)">
<path fill-rule="evenodd" clip-rule="evenodd" d="M26.875 13.125H13.125C12.4346 13.125 11.875 13.6846 11.875 14.375V25.625C11.875 26.3154 12.4346 26.875 13.125 26.875H26.875C27.5654 26.875 28.125 26.3154 28.125 25.625V14.375C28.125 13.6846 27.5654 13.125 26.875 13.125ZM26.875 25.625H13.125V14.375H26.875V25.625ZM23.75 16.875C23.75 18.9461 22.0711 20.625 20 20.625C17.9289 20.625 16.25 18.9461 16.25 16.875C16.25 16.5298 16.5298 16.25 16.875 16.25C17.2202 16.25 17.5 16.5298 17.5 16.875C17.5 18.2557 18.6193 19.375 20 19.375C21.3807 19.375 22.5 18.2557 22.5 16.875C22.5 16.5298 22.7798 16.25 23.125 16.25C23.4702 16.25 23.75 16.5298 23.75 16.875Z" fill="#121417"/>
</g>
<defs>
<clipPath id="clip0_804_5167">
<rect width="20" height="20" fill="white" transform="translate(10 10)"/>
</clipPath>
</defs>
</svg>
