<svg width="40" height="40" viewBox="0 0 40 40" fill="none" xmlns="http://www.w3.org/2000/svg">
<rect width="40" height="40" rx="8" fill="#F0F2F5"/>
<g clip-path="url(#clip0_804_5162)">
<path fill-rule="evenodd" clip-rule="evenodd" d="M23.9062 12.5C22.293 12.5 20.8805 13.1938 20 14.3664C19.1195 13.1938 17.707 12.5 16.0938 12.5C13.4199 12.503 11.253 14.6699 11.25 17.3438C11.25 22.8125 19.3586 27.2391 19.7039 27.4219C19.8888 27.5213 20.1112 27.5213 20.2961 27.4219C20.6414 27.2391 28.75 22.8125 28.75 17.3438C28.747 14.6699 26.5801 12.503 23.9062 12.5ZM20 26.1562C18.5734 25.325 12.5 21.5383 12.5 17.3438C12.5026 15.36 14.11 13.7526 16.0938 13.75C17.6133 13.75 18.8891 14.5594 19.4219 15.8594C19.5182 16.0938 19.7465 16.2469 20 16.2469C20.2535 16.2469 20.4818 16.0938 20.5781 15.8594C21.1109 14.557 22.3867 13.75 23.9062 13.75C25.89 13.7526 27.4974 15.36 27.5 17.3438C27.5 21.532 21.425 25.3242 20 26.1562Z" fill="#121417"/>
</g>
<defs>
<clipPath id="clip0_804_5162">
<rect width="20" height="20" fill="white" transform="translate(10 10)"/>
</clipPath>
</defs>
</svg>
