<svg width="73" height="24" viewBox="0 0 73 24" fill="none" xmlns="http://www.w3.org/2000/svg">
<g clip-path="url(#clip0_804_5206)">
<path fill-rule="evenodd" clip-rule="evenodd" d="M14.146 18.6667C14.146 18.6667 12.0248 15.3013 13.7231 12C15.6208 8.3112 14.0693 5.33333 14.0693 5.33333H2.33711C2.33711 5.33333 3.8859 8.31067 1.98971 11.999C0.292091 15.301 2.42365 18.6667 2.42365 18.6667H14.146Z" fill="#121417"/>
</g>
<path d="M44.114 18.5H40.928L40.1 15.818H36.032L35.186 18.5H32.072L36.248 6.62H39.956L44.114 18.5ZM36.608 13.712H39.524L38.066 8.906L36.608 13.712ZM49.3 9.32C50.248 9.32 51.076 9.506 51.784 9.878C52.504 10.238 53.062 10.772 53.458 11.48C53.866 12.176 54.07 13.016 54.07 14C54.07 14.984 53.866 15.83 53.458 16.538C53.062 17.234 52.504 17.768 51.784 18.14C51.076 18.5 50.248 18.68 49.3 18.68C48.376 18.68 47.554 18.5 46.834 18.14C46.114 17.768 45.55 17.234 45.142 16.538C44.746 15.83 44.548 14.984 44.548 14C44.548 13.016 44.746 12.176 45.142 11.48C45.55 10.772 46.114 10.238 46.834 9.878C47.554 9.506 48.376 9.32 49.3 9.32ZM49.3 11.498C48.952 11.498 48.652 11.582 48.4 11.75C48.148 11.918 47.956 12.188 47.824 12.56C47.692 12.932 47.626 13.412 47.626 14C47.626 14.588 47.692 15.068 47.824 15.44C47.956 15.8 48.148 16.07 48.4 16.25C48.652 16.418 48.952 16.502 49.3 16.502C49.66 16.502 49.966 16.418 50.218 16.25C50.47 16.07 50.662 15.8 50.794 15.44C50.926 15.068 50.992 14.588 50.992 14C50.992 13.412 50.926 12.932 50.794 12.56C50.662 12.188 50.47 11.918 50.218 11.75C49.966 11.582 49.66 11.498 49.3 11.498ZM55.7914 18.5V9.5H58.4914L58.6174 11.444C58.8454 10.772 59.1814 10.25 59.6254 9.878C60.0814 9.506 60.6574 9.32 61.3534 9.32C61.5814 9.32 61.7734 9.338 61.9294 9.374C62.0974 9.41 62.2294 9.458 62.3254 9.518L62.0194 12.038C61.8994 11.99 61.7434 11.954 61.5514 11.93C61.3714 11.894 61.1494 11.876 60.8854 11.876C60.5254 11.876 60.1894 11.954 59.8774 12.11C59.5654 12.266 59.3134 12.5 59.1214 12.812C58.9414 13.112 58.8514 13.496 58.8514 13.964V18.5H55.7914ZM68.4598 12.794C68.4598 12.374 68.3398 12.044 68.0998 11.804C67.8718 11.552 67.5598 11.426 67.1638 11.426C66.7678 11.426 66.4258 11.528 66.1378 11.732C65.8618 11.924 65.6698 12.272 65.5618 12.776L62.9698 12.164C63.1378 11.3 63.5818 10.61 64.3018 10.094C65.0218 9.578 66.0358 9.32 67.3438 9.32C68.2198 9.32 68.9638 9.452 69.5758 9.716C70.1998 9.968 70.6738 10.352 70.9978 10.868C71.3338 11.372 71.5018 11.996 71.5018 12.74V16.034C71.5018 16.502 71.7118 16.736 72.1318 16.736C72.3478 16.736 72.5218 16.712 72.6538 16.664L72.4738 18.41C72.1138 18.578 71.6758 18.662 71.1598 18.662C70.6918 18.662 70.2778 18.59 69.9178 18.446C69.5578 18.29 69.2758 18.062 69.0718 17.762C68.8678 17.45 68.7658 17.06 68.7658 16.592V16.484L69.1078 16.358C69.1078 16.874 68.9518 17.306 68.6398 17.654C68.3398 18.002 67.9438 18.26 67.4518 18.428C66.9718 18.596 66.4678 18.68 65.9398 18.68C65.3278 18.68 64.7938 18.584 64.3378 18.392C63.8818 18.2 63.5278 17.924 63.2758 17.564C63.0358 17.192 62.9158 16.736 62.9158 16.196C62.9158 15.548 63.1078 15.014 63.4918 14.594C63.8878 14.162 64.5058 13.862 65.3458 13.694L68.7478 12.992L68.7298 14.612L67.0018 14.972C66.6418 15.044 66.3718 15.152 66.1918 15.296C66.0238 15.428 65.9398 15.632 65.9398 15.908C65.9398 16.172 66.0358 16.37 66.2278 16.502C66.4198 16.634 66.6478 16.7 66.9118 16.7C67.1158 16.7 67.3078 16.67 67.4878 16.61C67.6798 16.55 67.8478 16.46 67.9918 16.34C68.1358 16.208 68.2498 16.046 68.3338 15.854C68.4178 15.662 68.4598 15.434 68.4598 15.17V12.794Z" fill="#121417"/>
<defs>
<clipPath id="clip0_804_5206">
<rect width="16" height="16" fill="white" transform="translate(0 4)"/>
</clipPath>
</defs>
</svg>
